<?xml version="1.0" encoding="UTF-8"?>
<!DOCTYPE svg PUBLIC "-//W3C//DTD SVG 1.1//EN" "http://www.w3.org/Graphics/SVG/1.1/DTD/svg11.dtd">
<svg xmlns="http://www.w3.org/2000/svg" version="1.1" width="64px" height="64px" style="shape-rendering:geometricPrecision; text-rendering:geometricPrecision; image-rendering:optimizeQuality; fill-rule:evenodd; clip-rule:evenodd" xmlns:xlink="http://www.w3.org/1999/xlink">
	<g><path style="opacity:1" fill="#0000ff" d="M 47.5,15.5 C 46.1667,15.5 44.8333,15.5 43.5,15.5C 43.5,12.8333 43.5,10.1667 43.5,7.5C 31.5,7.5 19.5,7.5 7.5,7.5C 7.5,19.5 7.5,31.5 7.5,43.5C 10.1667,43.5 12.8333,43.5 15.5,43.5C 15.5,44.8333 15.5,46.1667 15.5,47.5C 11.5,47.5 7.5,47.5 3.5,47.5C 3.5,32.8333 3.5,18.1667 3.5,3.5C 18.1667,3.5 32.8333,3.5 47.5,3.5C 47.5,7.5 47.5,11.5 47.5,15.5 Z"/></g>
	<g><path style="opacity:1" fill="#cbccfe" d="M 43.5,15.5 C 34.1667,15.5 24.8333,15.5 15.5,15.5C 15.5,24.8333 15.5,34.1667 15.5,43.5C 12.8333,43.5 10.1667,43.5 7.5,43.5C 7.5,31.5 7.5,19.5 7.5,7.5C 19.5,7.5 31.5,7.5 43.5,7.5C 43.5,10.1667 43.5,12.8333 43.5,15.5 Z"/></g>
	<g><path style="opacity:1" fill="#98cc65" d="M 43.5,15.5 C 44.8333,15.5 46.1667,15.5 47.5,15.5C 47.5,16.8333 47.5,18.1667 47.5,19.5C 47.5,28.8333 47.5,38.1667 47.5,47.5C 38.1667,47.5 28.8333,47.5 19.5,47.5C 18.1667,47.5 16.8333,47.5 15.5,47.5C 15.5,46.1667 15.5,44.8333 15.5,43.5C 15.5,34.1667 15.5,24.8333 15.5,15.5C 24.8333,15.5 34.1667,15.5 43.5,15.5 Z"/></g>
	<g><path style="opacity:1" fill="#fe0000" d="M 47.5,15.5 C 51.5,15.5 55.5,15.5 59.5,15.5C 59.5,30.1667 59.5,44.8333 59.5,59.5C 44.8333,59.5 30.1667,59.5 15.5,59.5C 15.5,55.5 15.5,51.5 15.5,47.5C 16.8333,47.5 18.1667,47.5 19.5,47.5C 19.5,50.1667 19.5,52.8333 19.5,55.5C 31.5,55.5 43.5,55.5 55.5,55.5C 55.5,43.5 55.5,31.5 55.5,19.5C 52.8333,19.5 50.1667,19.5 47.5,19.5C 47.5,18.1667 47.5,16.8333 47.5,15.5 Z"/></g>
	<g><path style="opacity:1" fill="#feff65" d="M 19.5,19.5 C 27.5,19.5 35.5,19.5 43.5,19.5C 43.5,27.5 43.5,35.5 43.5,43.5C 35.5,43.5 27.5,43.5 19.5,43.5C 19.5,35.5 19.5,27.5 19.5,19.5 Z"/></g>
	<g><path style="opacity:1" fill="#feccfe" d="M 47.5,19.5 C 50.1667,19.5 52.8333,19.5 55.5,19.5C 55.5,31.5 55.5,43.5 55.5,55.5C 43.5,55.5 31.5,55.5 19.5,55.5C 19.5,52.8333 19.5,50.1667 19.5,47.5C 28.8333,47.5 38.1667,47.5 47.5,47.5C 47.5,38.1667 47.5,28.8333 47.5,19.5 Z"/></g>
</svg>
